<svg xmlns="http://www.w3.org/2000/svg" xmlns:xlink="http://www.w3.org/1999/xlink" width="500" zoomAndPan="magnify" viewBox="0 0 375 374.999991" height="500" preserveAspectRatio="xMidYMid meet" version="1.0"><defs><g/></defs><rect x="-37.5" width="450" fill="#ffffff" y="-37.499999" height="449.999989" fill-opacity="1"/><rect x="-37.5" width="450" fill="#ffffff" y="-37.499999" height="449.999989" fill-opacity="1"/><g fill="#265045" fill-opacity="0.7686"><g transform="translate(44.477088, 233.21541)"><g><path d="M 2.507812 -41.167969 L -10.867188 26.351562 C -11.074219 27.34375 -11.105469 28.304688 -10.980469 29.160156 C -10.453125 32.742188 -7.128906 34.609375 -3.972656 34.148438 C -1.328125 33.757812 1.167969 31.738281 1.945312 27.527344 L 15.648438 -43.09375 L 21.867188 -44.09375 C 25.867188 -44.769531 27.316406 -47.945312 26.957031 -50.421875 C 26.605469 -52.808594 24.488281 -54.765625 21.328125 -54.300781 L 17.832031 -53.789062 L 20.644531 -67.890625 C 21.027344 -70.039062 22.460938 -71.554688 23.910156 -71.769531 C 25.703125 -72.03125 26.535156 -71.109375 26.75 -69.65625 C 26.824219 -69.144531 26.816406 -68.621094 26.730469 -67.996094 C 26.429688 -67.082031 26.371094 -66.289062 26.484375 -65.519531 C 26.921875 -62.535156 30.125 -60.910156 33.113281 -61.347656 C 35.84375 -61.75 38.410156 -63.867188 38.734375 -68.1875 C 38.816406 -69.421875 38.824219 -70.554688 38.660156 -71.664062 C 37.558594 -79.175781 30.929688 -83.957031 23.503906 -82.867188 C 16.25 -81.804688 9.597656 -76.644531 7.742188 -67.304688 L 4.6875 -51.863281 L 2.46875 -51.535156 C -2.824219 -50.761719 -4.605469 -47.449219 -4.203125 -44.71875 C -3.851562 -42.328125 -1.929688 -40.515625 0.714844 -40.90625 Z M 2.507812 -41.167969 "/></g></g></g><g fill="#265045" fill-opacity="0.7686"><g transform="translate(71.786858, 229.210592)"><g><path d="M 9.652344 -15.625 L 19.964844 -70.144531 C 20.15625 -71.21875 20.175781 -72.265625 20.050781 -73.121094 C 19.578125 -76.363281 16.191406 -78.046875 13.628906 -77.671875 C 10.386719 -77.195312 8.515625 -75.089844 7.714844 -71.050781 L -2.601562 -17.75 C -3 -15.6875 -3.078125 -13.847656 -2.8125 -12.054688 C -1.664062 -4.203125 5.460938 -0.800781 12.972656 -1.902344 C 21.082031 -3.089844 30.496094 -9.617188 33.867188 -28.242188 C 33.953125 -28.867188 33.949219 -29.476562 33.875 -29.988281 C 33.472656 -32.71875 30.796875 -34.332031 28.152344 -33.945312 C 26.015625 -33.632812 23.902344 -32.011719 23.167969 -28.679688 C 20.832031 -17.875 16.519531 -12.796875 12.507812 -12.207031 C 10.800781 -11.957031 9.710938 -12.84375 9.523438 -14.125 C 9.472656 -14.464844 9.558594 -15.089844 9.652344 -15.625 Z M 9.652344 -15.625 "/></g></g></g><g fill="#265045" fill-opacity="0.7686"><g transform="translate(95.597563, 225.718891)"><g><path d="M 49.28125 -36.695312 C 46.890625 -36.34375 44.457031 -34.503906 43.910156 -31.109375 C 42.121094 -20.125 37.257812 -15.839844 33.417969 -15.273438 C 31.964844 -15.0625 31 -15.703125 30.800781 -17.070312 C 30.699219 -17.753906 30.746094 -18.632812 30.863281 -19.609375 L 36.367188 -48.660156 C 36.558594 -49.734375 36.589844 -50.699219 36.464844 -51.554688 C 35.914062 -55.308594 32.554688 -56.820312 29.398438 -56.359375 C 27.007812 -56.007812 24.695312 -54.535156 23.644531 -52.199219 C 21.6875 -53.046875 18.171875 -53.839844 13.820312 -53.203125 C 8.1875 -52.375 2.492188 -48.402344 1.152344 -41.492188 L -3.503906 -17.359375 C -3.792969 -15.746094 -3.90625 -14.160156 -3.683594 -12.625 C -2.644531 -5.539062 3.925781 -0.574219 11.4375 -1.675781 C 15.449219 -2.265625 19.28125 -4.660156 22.027344 -7.9375 C 25.332031 -4.414062 31.492188 -4.617188 34.050781 -4.992188 C 41.136719 -6.03125 50.082031 -11.007812 53.519531 -25.632812 C 54.226562 -29.136719 54.851562 -31.40625 54.625 -32.945312 C 54.199219 -35.847656 51.757812 -37.058594 49.28125 -36.695312 Z M 20.992188 -33.417969 L 18.761719 -20.101562 C 17.78125 -14.289062 14.726562 -12.535156 12.933594 -12.269531 C 11.054688 -11.996094 9.941406 -13.054688 9.65625 -15.015625 C 9.492188 -16.125 9.597656 -17.1875 9.742188 -17.992188 L 12.6875 -35.949219 C 13.546875 -41.390625 15.835938 -42.425781 17.199219 -42.625 C 18.824219 -42.863281 20.851562 -41.503906 21.277344 -38.601562 C 21.464844 -37.324219 21.363281 -35.652344 20.992188 -33.417969 Z M 20.992188 -33.417969 "/></g></g></g><g fill="#265045" fill-opacity="0.7686"><g transform="translate(140.40266, 219.148485)"><g><path d="M 41.777344 -30.796875 C 40.464844 -25.460938 37.992188 -21.527344 34.40625 -18.644531 C 34.414062 -19.78125 34.433594 -20.828125 34.269531 -21.9375 C 33.542969 -26.886719 30.210938 -31.195312 27.234375 -34.855469 C 25.101562 -37.507812 22.96875 -40.15625 22.238281 -42.753906 C 24.476562 -44.128906 25.953125 -47.136719 25.578125 -49.695312 C 25.042969 -53.363281 21.722656 -56.367188 17.457031 -55.738281 C 14.214844 -55.265625 11.207031 -53.167969 10.074219 -49.601562 C 7.699219 -42.625 5.078125 -35.53125 2.601562 -28.628906 C -2.902344 -26.339844 -4.769531 -19.4375 -3.96875 -13.976562 C -2.742188 -5.613281 6.574219 -0.355469 21.679688 -2.570312 C 36.53125 -4.746094 49.019531 -12.332031 52.464844 -30.449219 C 52.585938 -30.8125 52.523438 -31.242188 52.472656 -31.582031 C 52.109375 -34.058594 49.03125 -35.4375 46.296875 -35.035156 C 44.25 -34.734375 42.351562 -33.410156 41.777344 -30.796875 Z M 14.382812 -29.136719 L 14.914062 -30.871094 C 17.925781 -28.171875 20.574219 -24.375 21.164062 -20.363281 C 21.75 -16.355469 20.105469 -12.710938 15.605469 -11.878906 C 12.707031 -11.453125 9.957031 -12.359375 8.691406 -14.4375 C 9.402344 -14.367188 10.082031 -14.46875 10.679688 -14.554688 C 15.632812 -15.28125 17.917969 -19.890625 17.304688 -24.070312 C 17.019531 -26.035156 16.046875 -27.898438 14.382812 -29.136719 Z M 14.382812 -29.136719 "/></g></g></g><g fill="#265045" fill-opacity="0.7686"><g transform="translate(182.988827, 212.903472)"><g><path d="M 45.015625 -31.882812 C 42.765625 -21.089844 38.539062 -16.027344 34.695312 -15.460938 C 33.074219 -15.226562 31.914062 -16.011719 31.726562 -17.292969 C 31.675781 -17.636719 31.699219 -18.074219 31.820312 -18.441406 L 35.902344 -39.351562 C 36.261719 -41.0625 36.207031 -42.621094 35.992188 -44.074219 C 34.992188 -50.902344 28.839844 -55.402344 21.925781 -54.390625 C 19.878906 -54.089844 18.308594 -53.511719 16.628906 -52.480469 L 19.703125 -68.972656 C 19.929688 -70.398438 20.167969 -71.742188 20.003906 -72.851562 C 19.476562 -76.4375 16.363281 -78.070312 13.546875 -77.660156 C 10.21875 -77.171875 8.457031 -74.90625 7.5 -70.144531 L -4.472656 -9.109375 C -4.726562 -7.851562 -4.734375 -6.714844 -4.582031 -5.691406 C -4.019531 -1.851562 -0.851562 0.125 2.046875 -0.300781 C 4.523438 -0.664062 6.859375 -2.574219 7.613281 -6.347656 L 13.660156 -37.050781 C 14.976562 -40.554688 17.515625 -43.457031 20.160156 -43.84375 C 21.867188 -44.09375 23.25 -42.988281 23.476562 -41.453125 C 23.550781 -40.941406 23.539062 -40.417969 23.359375 -39.867188 L 19.746094 -21.117188 C 19.363281 -18.96875 19.296875 -17.039062 19.546875 -15.332031 C 20.722656 -7.3125 28.164062 -4.128906 35.417969 -5.195312 C 43.527344 -6.382812 52.089844 -12.78125 55.632812 -31.433594 C 55.714844 -32.058594 55.726562 -32.582031 55.648438 -33.09375 C 55.261719 -35.738281 52.453125 -37.070312 49.71875 -36.671875 C 47.585938 -36.359375 45.457031 -34.824219 45.015625 -31.882812 Z M 45.015625 -31.882812 "/></g></g></g><g fill="#265045" fill-opacity="0.7686"><g transform="translate(228.73269, 206.195401)"><g><path d="M 14.460938 -61.316406 C 18.300781 -61.878906 20.996094 -65.5 20.417969 -69.425781 C 19.855469 -73.265625 16.246094 -75.875 12.40625 -75.3125 C 8.566406 -74.75 5.859375 -71.214844 6.421875 -67.375 C 7 -63.449219 10.621094 -60.753906 14.460938 -61.316406 Z M 9.320312 -16.101562 L 14.777344 -44.277344 C 14.957031 -45.433594 15.210938 -46.691406 15.085938 -47.546875 C 14.535156 -51.300781 11.429688 -52.851562 8.527344 -52.425781 C 5.882812 -52.039062 3.339844 -49.746094 2.5625 -45.535156 C 1.007812 -37.113281 -1.085938 -26.429688 -2.652344 -18.09375 C -2.914062 -16.3125 -3.261719 -13.90625 -3.046875 -12.457031 C -1.871094 -4.433594 5.460938 -0.800781 13.3125 -1.953125 C 21.675781 -3.179688 30.144531 -9.652344 33.527344 -28.195312 C 33.625 -28.730469 33.632812 -29.253906 33.558594 -29.765625 C 33.171875 -32.414062 30.371094 -33.660156 27.8125 -33.285156 C 25.507812 -32.945312 23.378906 -31.414062 22.742188 -28.617188 C 20.359375 -16.933594 16.347656 -12.773438 12.933594 -12.269531 C 10.972656 -11.984375 9.503906 -13.074219 9.265625 -14.699219 C 9.203125 -15.125 9.226562 -15.5625 9.320312 -16.101562 Z M 9.320312 -16.101562 "/></g></g></g><g fill="#265045" fill-opacity="0.7686"><g transform="translate(252.287367, 202.741245)"><g><path d="M 2.507812 -41.167969 L -10.867188 26.351562 C -11.074219 27.34375 -11.105469 28.304688 -10.980469 29.160156 C -10.453125 32.742188 -7.128906 34.609375 -3.972656 34.148438 C -1.328125 33.757812 1.167969 31.738281 1.945312 27.527344 L 15.648438 -43.09375 L 21.867188 -44.09375 C 25.867188 -44.769531 27.316406 -47.945312 26.957031 -50.421875 C 26.605469 -52.808594 24.488281 -54.765625 21.328125 -54.300781 L 17.832031 -53.789062 L 20.644531 -67.890625 C 21.027344 -70.039062 22.460938 -71.554688 23.910156 -71.769531 C 25.703125 -72.03125 26.535156 -71.109375 26.75 -69.65625 C 26.824219 -69.144531 26.816406 -68.621094 26.730469 -67.996094 C 26.429688 -67.082031 26.371094 -66.289062 26.484375 -65.519531 C 26.921875 -62.535156 30.125 -60.910156 33.113281 -61.347656 C 35.84375 -61.75 38.410156 -63.867188 38.734375 -68.1875 C 38.816406 -69.421875 38.824219 -70.554688 38.660156 -71.664062 C 37.558594 -79.175781 30.929688 -83.957031 23.503906 -82.867188 C 16.25 -81.804688 9.597656 -76.644531 7.742188 -67.304688 L 4.6875 -51.863281 L 2.46875 -51.535156 C -2.824219 -50.761719 -4.605469 -47.449219 -4.203125 -44.71875 C -3.851562 -42.328125 -1.929688 -40.515625 0.714844 -40.90625 Z M 2.507812 -41.167969 "/></g></g></g><g fill="#265045" fill-opacity="0.7686"><g transform="translate(279.597137, 198.736426)"><g><path d="M 9.625 -16.40625 L 15.15625 -44.679688 C 15.359375 -45.667969 15.40625 -46.546875 15.28125 -47.398438 C 14.765625 -50.898438 11.34375 -52.839844 8.1875 -52.375 C 5.796875 -52.023438 3.449219 -50.199219 2.753906 -46.609375 L -3.265625 -15.738281 C -3.625 -14.027344 -3.644531 -12.367188 -3.417969 -10.832031 C -2.566406 -5.027344 2.140625 -1.449219 7.851562 -1.152344 C -2.222656 2.679688 -11.921875 8.460938 -10.382812 18.957031 C -9.171875 27.238281 -0.6875 31.574219 7.675781 30.347656 C 16.125 29.109375 23.398438 23.421875 25.53125 12.996094 C 26.199219 9.234375 27.015625 5.28125 27.78125 1.59375 C 39.421875 -4.039062 50.992188 -12.535156 54.253906 -31.320312 C 54.410156 -32.039062 54.394531 -32.734375 54.308594 -33.332031 C 53.882812 -36.234375 51.414062 -37.617188 48.851562 -37.242188 C 46.546875 -36.902344 44.285156 -35.089844 43.578125 -31.585938 C 41.699219 -22.417969 36.730469 -16.457031 30.574219 -12.066406 L 37.515625 -48.566406 C 37.65625 -49.375 37.644531 -50.070312 37.554688 -50.667969 C 37.042969 -54.164062 33.617188 -56.105469 30.460938 -55.640625 C 28.070312 -55.292969 25.722656 -53.464844 25.03125 -49.875 L 19.445312 -19.589844 C 17.390625 -14.582031 14.652344 -12.4375 12.347656 -12.097656 C 10.8125 -11.871094 9.738281 -12.675781 9.511719 -14.210938 C 9.421875 -14.808594 9.480469 -15.601562 9.625 -16.40625 Z M 12.738281 7.808594 L 11.542969 13.914062 C 10.8125 17.246094 8.402344 19.253906 5.84375 19.628906 C 3.878906 19.917969 2.851562 18.847656 2.625 17.3125 C 2.550781 16.800781 2.535156 16.105469 2.703125 15.46875 C 3.460938 12.308594 7.40625 10.074219 12.738281 7.808594 Z M 12.738281 7.808594 "/></g></g></g><g fill="#75bb95" fill-opacity="1"><g transform="translate(42.058716, 230.907798)"><g><path d="M 2.507812 -41.167969 L -10.867188 26.351562 C -11.074219 27.34375 -11.105469 28.304688 -10.980469 29.160156 C -10.453125 32.742188 -7.128906 34.609375 -3.972656 34.148438 C -1.328125 33.757812 1.167969 31.738281 1.945312 27.527344 L 15.648438 -43.09375 L 21.867188 -44.09375 C 25.867188 -44.769531 27.316406 -47.945312 26.957031 -50.421875 C 26.605469 -52.808594 24.488281 -54.765625 21.328125 -54.300781 L 17.832031 -53.789062 L 20.644531 -67.890625 C 21.027344 -70.039062 22.460938 -71.554688 23.910156 -71.769531 C 25.703125 -72.03125 26.535156 -71.109375 26.75 -69.65625 C 26.824219 -69.144531 26.816406 -68.621094 26.730469 -67.996094 C 26.429688 -67.082031 26.371094 -66.289062 26.484375 -65.519531 C 26.921875 -62.535156 30.125 -60.910156 33.113281 -61.347656 C 35.84375 -61.75 38.410156 -63.867188 38.734375 -68.1875 C 38.816406 -69.421875 38.824219 -70.554688 38.660156 -71.664062 C 37.558594 -79.175781 30.929688 -83.957031 23.503906 -82.867188 C 16.25 -81.804688 9.597656 -76.644531 7.742188 -67.304688 L 4.6875 -51.863281 L 2.46875 -51.535156 C -2.824219 -50.761719 -4.605469 -47.449219 -4.203125 -44.71875 C -3.851562 -42.328125 -1.929688 -40.515625 0.714844 -40.90625 Z M 2.507812 -41.167969 "/></g></g></g><g fill="#75bb95" fill-opacity="1"><g transform="translate(69.368486, 226.90298)"><g><path d="M 9.652344 -15.625 L 19.964844 -70.144531 C 20.15625 -71.21875 20.175781 -72.265625 20.050781 -73.121094 C 19.578125 -76.363281 16.191406 -78.046875 13.628906 -77.671875 C 10.386719 -77.195312 8.515625 -75.089844 7.714844 -71.050781 L -2.601562 -17.75 C -3 -15.6875 -3.078125 -13.847656 -2.8125 -12.054688 C -1.664062 -4.203125 5.460938 -0.800781 12.972656 -1.902344 C 21.082031 -3.089844 30.496094 -9.617188 33.867188 -28.242188 C 33.953125 -28.867188 33.949219 -29.476562 33.875 -29.988281 C 33.472656 -32.71875 30.796875 -34.332031 28.152344 -33.945312 C 26.015625 -33.632812 23.902344 -32.011719 23.167969 -28.679688 C 20.832031 -17.875 16.519531 -12.796875 12.507812 -12.207031 C 10.800781 -11.957031 9.710938 -12.84375 9.523438 -14.125 C 9.472656 -14.464844 9.558594 -15.089844 9.652344 -15.625 Z M 9.652344 -15.625 "/></g></g></g><g fill="#75bb95" fill-opacity="1"><g transform="translate(93.179191, 223.411279)"><g><path d="M 49.28125 -36.695312 C 46.890625 -36.34375 44.457031 -34.503906 43.910156 -31.109375 C 42.121094 -20.125 37.257812 -15.839844 33.417969 -15.273438 C 31.964844 -15.0625 31 -15.703125 30.800781 -17.070312 C 30.699219 -17.753906 30.746094 -18.632812 30.863281 -19.609375 L 36.367188 -48.660156 C 36.558594 -49.734375 36.589844 -50.699219 36.464844 -51.554688 C 35.914062 -55.308594 32.554688 -56.820312 29.398438 -56.359375 C 27.007812 -56.007812 24.695312 -54.535156 23.644531 -52.199219 C 21.6875 -53.046875 18.171875 -53.839844 13.820312 -53.203125 C 8.1875 -52.375 2.492188 -48.402344 1.152344 -41.492188 L -3.503906 -17.359375 C -3.792969 -15.746094 -3.90625 -14.160156 -3.683594 -12.625 C -2.644531 -5.539062 3.925781 -0.574219 11.4375 -1.675781 C 15.449219 -2.265625 19.28125 -4.660156 22.027344 -7.9375 C 25.332031 -4.414062 31.492188 -4.617188 34.050781 -4.992188 C 41.136719 -6.03125 50.082031 -11.007812 53.519531 -25.632812 C 54.226562 -29.136719 54.851562 -31.40625 54.625 -32.945312 C 54.199219 -35.847656 51.757812 -37.058594 49.28125 -36.695312 Z M 20.992188 -33.417969 L 18.761719 -20.101562 C 17.78125 -14.289062 14.726562 -12.535156 12.933594 -12.269531 C 11.054688 -11.996094 9.941406 -13.054688 9.65625 -15.015625 C 9.492188 -16.125 9.597656 -17.1875 9.742188 -17.992188 L 12.6875 -35.949219 C 13.546875 -41.390625 15.835938 -42.425781 17.199219 -42.625 C 18.824219 -42.863281 20.851562 -41.503906 21.277344 -38.601562 C 21.464844 -37.324219 21.363281 -35.652344 20.992188 -33.417969 Z M 20.992188 -33.417969 "/></g></g></g><g fill="#75bb95" fill-opacity="1"><g transform="translate(137.984287, 216.840873)"><g><path d="M 41.777344 -30.796875 C 40.464844 -25.460938 37.992188 -21.527344 34.40625 -18.644531 C 34.414062 -19.78125 34.433594 -20.828125 34.269531 -21.9375 C 33.542969 -26.886719 30.210938 -31.195312 27.234375 -34.855469 C 25.101562 -37.507812 22.96875 -40.15625 22.238281 -42.753906 C 24.476562 -44.128906 25.953125 -47.136719 25.578125 -49.695312 C 25.042969 -53.363281 21.722656 -56.367188 17.457031 -55.738281 C 14.214844 -55.265625 11.207031 -53.167969 10.074219 -49.601562 C 7.699219 -42.625 5.078125 -35.53125 2.601562 -28.628906 C -2.902344 -26.339844 -4.769531 -19.4375 -3.96875 -13.976562 C -2.742188 -5.613281 6.574219 -0.355469 21.679688 -2.570312 C 36.53125 -4.746094 49.019531 -12.332031 52.464844 -30.449219 C 52.585938 -30.8125 52.523438 -31.242188 52.472656 -31.582031 C 52.109375 -34.058594 49.03125 -35.4375 46.296875 -35.035156 C 44.25 -34.734375 42.351562 -33.410156 41.777344 -30.796875 Z M 14.382812 -29.136719 L 14.914062 -30.871094 C 17.925781 -28.171875 20.574219 -24.375 21.164062 -20.363281 C 21.75 -16.355469 20.105469 -12.710938 15.605469 -11.878906 C 12.707031 -11.453125 9.957031 -12.359375 8.691406 -14.4375 C 9.402344 -14.367188 10.082031 -14.46875 10.679688 -14.554688 C 15.632812 -15.28125 17.917969 -19.890625 17.304688 -24.070312 C 17.019531 -26.035156 16.046875 -27.898438 14.382812 -29.136719 Z M 14.382812 -29.136719 "/></g></g></g><g fill="#75bb95" fill-opacity="1"><g transform="translate(180.570455, 210.59586)"><g><path d="M 45.015625 -31.882812 C 42.765625 -21.089844 38.539062 -16.027344 34.695312 -15.460938 C 33.074219 -15.226562 31.914062 -16.011719 31.726562 -17.292969 C 31.675781 -17.636719 31.699219 -18.074219 31.820312 -18.441406 L 35.902344 -39.351562 C 36.261719 -41.0625 36.207031 -42.621094 35.992188 -44.074219 C 34.992188 -50.902344 28.839844 -55.402344 21.925781 -54.390625 C 19.878906 -54.089844 18.308594 -53.511719 16.628906 -52.480469 L 19.703125 -68.972656 C 19.929688 -70.398438 20.167969 -71.742188 20.003906 -72.851562 C 19.476562 -76.4375 16.363281 -78.070312 13.546875 -77.660156 C 10.21875 -77.171875 8.457031 -74.90625 7.5 -70.144531 L -4.472656 -9.109375 C -4.726562 -7.851562 -4.734375 -6.714844 -4.582031 -5.691406 C -4.019531 -1.851562 -0.851562 0.125 2.046875 -0.300781 C 4.523438 -0.664062 6.859375 -2.574219 7.613281 -6.347656 L 13.660156 -37.050781 C 14.976562 -40.554688 17.515625 -43.457031 20.160156 -43.84375 C 21.867188 -44.09375 23.25 -42.988281 23.476562 -41.453125 C 23.550781 -40.941406 23.539062 -40.417969 23.359375 -39.867188 L 19.746094 -21.117188 C 19.363281 -18.96875 19.296875 -17.039062 19.546875 -15.332031 C 20.722656 -7.3125 28.164062 -4.128906 35.417969 -5.195312 C 43.527344 -6.382812 52.089844 -12.78125 55.632812 -31.433594 C 55.714844 -32.058594 55.726562 -32.582031 55.648438 -33.09375 C 55.261719 -35.738281 52.453125 -37.070312 49.71875 -36.671875 C 47.585938 -36.359375 45.457031 -34.824219 45.015625 -31.882812 Z M 45.015625 -31.882812 "/></g></g></g><g fill="#75bb95" fill-opacity="1"><g transform="translate(226.314317, 203.887789)"><g><path d="M 14.460938 -61.316406 C 18.300781 -61.878906 20.996094 -65.5 20.417969 -69.425781 C 19.855469 -73.265625 16.246094 -75.875 12.40625 -75.3125 C 8.566406 -74.75 5.859375 -71.214844 6.421875 -67.375 C 7 -63.449219 10.621094 -60.753906 14.460938 -61.316406 Z M 9.320312 -16.101562 L 14.777344 -44.277344 C 14.957031 -45.433594 15.210938 -46.691406 15.085938 -47.546875 C 14.535156 -51.300781 11.429688 -52.851562 8.527344 -52.425781 C 5.882812 -52.039062 3.339844 -49.746094 2.5625 -45.535156 C 1.007812 -37.113281 -1.085938 -26.429688 -2.652344 -18.09375 C -2.914062 -16.3125 -3.261719 -13.90625 -3.046875 -12.457031 C -1.871094 -4.433594 5.460938 -0.800781 13.3125 -1.953125 C 21.675781 -3.179688 30.144531 -9.652344 33.527344 -28.195312 C 33.625 -28.730469 33.632812 -29.253906 33.558594 -29.765625 C 33.171875 -32.414062 30.371094 -33.660156 27.8125 -33.285156 C 25.507812 -32.945312 23.378906 -31.414062 22.742188 -28.617188 C 20.359375 -16.933594 16.347656 -12.773438 12.933594 -12.269531 C 10.972656 -11.984375 9.503906 -13.074219 9.265625 -14.699219 C 9.203125 -15.125 9.226562 -15.5625 9.320312 -16.101562 Z M 9.320312 -16.101562 "/></g></g></g><g fill="#75bb95" fill-opacity="1"><g transform="translate(249.868995, 200.433633)"><g><path d="M 2.507812 -41.167969 L -10.867188 26.351562 C -11.074219 27.34375 -11.105469 28.304688 -10.980469 29.160156 C -10.453125 32.742188 -7.128906 34.609375 -3.972656 34.148438 C -1.328125 33.757812 1.167969 31.738281 1.945312 27.527344 L 15.648438 -43.09375 L 21.867188 -44.09375 C 25.867188 -44.769531 27.316406 -47.945312 26.957031 -50.421875 C 26.605469 -52.808594 24.488281 -54.765625 21.328125 -54.300781 L 17.832031 -53.789062 L 20.644531 -67.890625 C 21.027344 -70.039062 22.460938 -71.554688 23.910156 -71.769531 C 25.703125 -72.03125 26.535156 -71.109375 26.75 -69.65625 C 26.824219 -69.144531 26.816406 -68.621094 26.730469 -67.996094 C 26.429688 -67.082031 26.371094 -66.289062 26.484375 -65.519531 C 26.921875 -62.535156 30.125 -60.910156 33.113281 -61.347656 C 35.84375 -61.75 38.410156 -63.867188 38.734375 -68.1875 C 38.816406 -69.421875 38.824219 -70.554688 38.660156 -71.664062 C 37.558594 -79.175781 30.929688 -83.957031 23.503906 -82.867188 C 16.25 -81.804688 9.597656 -76.644531 7.742188 -67.304688 L 4.6875 -51.863281 L 2.46875 -51.535156 C -2.824219 -50.761719 -4.605469 -47.449219 -4.203125 -44.71875 C -3.851562 -42.328125 -1.929688 -40.515625 0.714844 -40.90625 Z M 2.507812 -41.167969 "/></g></g></g><g fill="#75bb95" fill-opacity="1"><g transform="translate(277.178765, 196.428815)"><g><path d="M 9.625 -16.40625 L 15.15625 -44.679688 C 15.359375 -45.667969 15.40625 -46.546875 15.28125 -47.398438 C 14.765625 -50.898438 11.34375 -52.839844 8.1875 -52.375 C 5.796875 -52.023438 3.449219 -50.199219 2.753906 -46.609375 L -3.265625 -15.738281 C -3.625 -14.027344 -3.644531 -12.367188 -3.417969 -10.832031 C -2.566406 -5.027344 2.140625 -1.449219 7.851562 -1.152344 C -2.222656 2.679688 -11.921875 8.460938 -10.382812 18.957031 C -9.171875 27.238281 -0.6875 31.574219 7.675781 30.347656 C 16.125 29.109375 23.398438 23.421875 25.53125 12.996094 C 26.199219 9.234375 27.015625 5.28125 27.78125 1.59375 C 39.421875 -4.039062 50.992188 -12.535156 54.253906 -31.320312 C 54.410156 -32.039062 54.394531 -32.734375 54.308594 -33.332031 C 53.882812 -36.234375 51.414062 -37.617188 48.851562 -37.242188 C 46.546875 -36.902344 44.285156 -35.089844 43.578125 -31.585938 C 41.699219 -22.417969 36.730469 -16.457031 30.574219 -12.066406 L 37.515625 -48.566406 C 37.65625 -49.375 37.644531 -50.070312 37.554688 -50.667969 C 37.042969 -54.164062 33.617188 -56.105469 30.460938 -55.640625 C 28.070312 -55.292969 25.722656 -53.464844 25.03125 -49.875 L 19.445312 -19.589844 C 17.390625 -14.582031 14.652344 -12.4375 12.347656 -12.097656 C 10.8125 -11.871094 9.738281 -12.675781 9.511719 -14.210938 C 9.421875 -14.808594 9.480469 -15.601562 9.625 -16.40625 Z M 12.738281 7.808594 L 11.542969 13.914062 C 10.8125 17.246094 8.402344 19.253906 5.84375 19.628906 C 3.878906 19.917969 2.851562 18.847656 2.625 17.3125 C 2.550781 16.800781 2.535156 16.105469 2.703125 15.46875 C 3.460938 12.308594 7.40625 10.074219 12.738281 7.808594 Z M 12.738281 7.808594 "/></g></g></g></svg>