<svg xmlns="http://www.w3.org/2000/svg" xmlns:xlink="http://www.w3.org/1999/xlink" width="500" zoomAndPan="magnify" viewBox="0 0 375 374.999991" height="500" preserveAspectRatio="xMidYMid meet" version="1.0"><defs><clipPath id="5731892dc3"><path d="M 37.5 38 L 337 38 L 337 317.25 L 37.5 317.25 Z M 37.5 38 " clip-rule="nonzero"/></clipPath><clipPath id="a13534f0df"><path d="M 98.226562 171.347656 L 255.53125 171.347656 L 255.53125 304.429688 L 98.226562 304.429688 Z M 98.226562 171.347656 " clip-rule="nonzero"/></clipPath><clipPath id="43fa1b2675"><path d="M 118.808594 205 L 211.058594 205 L 211.058594 272.597656 L 118.808594 272.597656 Z M 118.808594 205 " clip-rule="nonzero"/></clipPath><clipPath id="64c22a37f9"><path d="M 147 169.847656 L 184 169.847656 L 184 237 L 147 237 Z M 147 169.847656 " clip-rule="nonzero"/></clipPath></defs><rect x="-37.5" width="450" fill="#ffffff" y="-37.499999" height="449.999989" fill-opacity="1"/><rect x="-37.5" width="450" fill="#ffffff" y="-37.499999" height="449.999989" fill-opacity="1"/><g clip-path="url(#5731892dc3)"><path fill="#75bb95" d="M 37.5 303.621094 C 37.5 311.039062 43.65625 317.195312 51.074219 317.195312 L 275.054688 317.195312 C 282.476562 317.195312 288.632812 311.039062 288.632812 303.621094 L 288.632812 281.058594 L 335.574219 121.925781 L 335.558594 121.9375 C 337.730469 114.632812 333.492188 106.769531 326.1875 104.597656 L 107.546875 39.496094 C 100.253906 37.332031 92.414062 41.609375 90.246094 48.882812 C 90.246094 48.886719 90.246094 48.890625 90.246094 48.894531 L 67.128906 127.148438 L 51.074219 127.148438 C 43.640625 127.148438 37.5 133.289062 37.5 140.722656 Z M 51.074219 303.621094 L 51.074219 140.722656 L 275.054688 140.722656 L 275.054688 279.480469 C 275.011719 279.929688 275.011719 280.378906 275.054688 280.832031 L 275.054688 303.621094 Z M 81.285156 127.148438 L 103.265625 52.738281 C 103.347656 52.480469 103.433594 52.429688 103.675781 52.5 L 322.316406 117.617188 C 322.558594 117.6875 322.636719 117.796875 322.554688 118.066406 C 322.550781 118.074219 322.546875 118.078125 322.542969 118.082031 L 288.632812 233.066406 L 288.632812 140.722656 C 288.632812 133.304688 282.476562 127.148438 275.054688 127.148438 Z M 125.734375 222.171875 C 125.734375 222.171875 141.667969 223.183594 141.667969 242.535156 L 152.882812 242.535156 L 152.882812 222.171875 L 213.96875 222.171875 L 213.96875 208.597656 L 125.734375 208.597656 Z M 125.734375 222.171875 " fill-opacity="1" fill-rule="nonzero"/></g><g clip-path="url(#a13534f0df)"><path fill="#ffffff" d="M 98.226562 171.347656 L 255.53125 171.347656 L 255.53125 304.429688 L 98.226562 304.429688 Z M 98.226562 171.347656 " fill-opacity="1" fill-rule="nonzero"/></g><g clip-path="url(#43fa1b2675)"><path fill="#589674" d="M 193.960938 205.261719 L 178.644531 205.261719 L 178.644531 214.34375 L 193.960938 214.34375 C 198.515625 214.34375 202.050781 216.671875 202.050781 218.671875 L 202.050781 258.957031 C 202.050781 260.957031 198.515625 263.28125 193.960938 263.28125 L 136.0625 263.28125 C 131.507812 263.28125 127.972656 260.957031 127.972656 258.957031 L 127.972656 218.671875 C 127.972656 216.671875 131.507812 214.347656 136.0625 214.347656 L 151.375 214.347656 L 151.375 205.261719 L 136.0625 205.261719 C 126.429688 205.261719 118.882812 211.152344 118.882812 218.671875 L 118.882812 258.957031 C 118.882812 266.480469 126.429688 272.367188 136.0625 272.367188 L 193.960938 272.367188 C 203.59375 272.367188 211.140625 266.476562 211.140625 258.957031 L 211.140625 218.671875 C 211.136719 211.152344 203.59375 205.261719 193.960938 205.261719 Z M 193.960938 205.261719 " fill-opacity="1" fill-rule="nonzero"/></g><g clip-path="url(#64c22a37f9)"><path fill="#589674" d="M 151.5625 192.550781 C 152.726562 192.550781 153.886719 192.109375 154.777344 191.222656 L 160.464844 185.535156 L 160.464844 231.746094 C 160.464844 234.257812 162.5 236.289062 165.007812 236.289062 C 167.519531 236.289062 169.554688 234.257812 169.554688 231.746094 L 169.554688 185.226562 L 175.550781 191.222656 C 176.4375 192.109375 177.601562 192.550781 178.765625 192.550781 C 179.925781 192.550781 181.089844 192.109375 181.976562 191.222656 C 183.753906 189.449219 183.753906 186.570312 181.976562 184.796875 L 168.410156 171.238281 C 167.519531 170.351562 166.359375 169.910156 165.199219 169.910156 C 165.183594 169.910156 165.175781 169.910156 165.164062 169.910156 C 165.152344 169.910156 165.140625 169.910156 165.128906 169.910156 C 163.964844 169.910156 162.804688 170.351562 161.917969 171.238281 L 148.347656 184.796875 C 146.574219 186.570312 146.574219 189.449219 148.347656 191.222656 C 149.238281 192.109375 150.398438 192.550781 151.5625 192.550781 Z M 151.5625 192.550781 " fill-opacity="1" fill-rule="nonzero"/></g></svg>